<?xml version="1.0" standalone="no"?>
<!DOCTYPE svg PUBLIC "-//W3C//DTD SVG 20010904//EN"
 "http://www.w3.org/TR/2001/REC-SVG-20010904/DTD/svg10.dtd">
<svg version="1.0" xmlns="http://www.w3.org/2000/svg"
 width="370.000000pt" height="348.000000pt" viewBox="0 0 370.000000 348.000000"
 preserveAspectRatio="xMidYMid meet">
<metadata>
Created by potrace 1.16, written by Peter Selinger 2001-2019
</metadata>
<g transform="translate(0.000000,348.000000) scale(0.100000,-0.100000)"
fill="#ffffff" stroke="none">
<path d="M1692 3098 c-7 -7 -12 -40 -12 -78 0 -77 -29 -238 -60 -330 -42 -127
-148 -327 -267 -501 -349 -516 -402 -603 -468 -769 -61 -153 -79 -246 -79
-415 0 -125 4 -164 23 -235 111 -415 453 -674 891 -674 210 0 373 48 535 157
230 156 364 398 382 692 18 308 -77 556 -387 1005 -381 552 -453 703 -482
1010 -6 69 -16 131 -21 138 -12 15 -39 16 -55 0z m-244 -1320 c23 -23 12 -53
-44 -123 -89 -111 -133 -180 -186 -292 -124 -263 -115 -484 28 -686 39 -54 44
-91 14 -107 -31 -16 -52 -5 -92 48 -157 206 -173 464 -50 759 51 120 167 301
252 391 23 24 59 29 78 10z"/>
</g>
</svg>
